Coordinates
version=1
nRows=32
nColumns=22
inDegrees=yes

Units are S.I. units (second, meters, Newtons, ...)
If the header above contains a line with 'inDegrees', this indicates whether rotational values are in degrees (yes) or radians (no).

endheader
time	pelvis_tilt	pelvis_list	pelvis_rotation	pelvis_tx	pelvis_ty	pelvis_tz	hip_flexion_r	hip_adduction_r	hip_rotation_r	knee_angle_r	ankle_angle_r	subtalar_angle_r	hip_flexion_l	hip_adduction_l	hip_rotation_l	knee_angle_l	ankle_angle_l	subtalar_angle_l	lumbar_extension	lumbar_bending	lumbar_rotation
      3.04000000	      9.70260274	     -1.92265510	      5.51061617	      0.50990166	      0.94309152	     -0.05541635	     15.69949916	      0.61461781	     -2.95885742	    -55.35912060	      0.99191633	      6.91155181	      2.84205293	      0.56696976	     -3.88050990	    -28.49740153	     23.67039919	    -21.12804498	    -17.28428582	      4.82989747	    -11.46672164
      3.05000000	      9.66505512	     -1.85534040	      5.39938191	      0.50124712	      0.94306203	     -0.05497619	     14.54532280	      0.72657537	     -2.80347695	    -56.66530947	      1.02983017	      6.64157489	      3.44783728	      0.65491660	     -4.03927370	    -28.45410954	     23.17378469	    -21.12763009	    -17.12650672	      4.71838927	    -11.32556493
      3.06000000	      9.62259872	     -1.80116277	      5.32160294	      0.49254823	      0.94284929	     -0.05456542	     13.29323145	      0.83179522	     -2.72734234	    -57.74216219	      0.93040734	      6.54088562	      4.10944439	      0.72962885	     -4.14560094	    -28.49161932	     22.68678503	    -21.15855504	    -16.95885693	      4.62957583	    -11.20527461
      3.07000000	      9.58687231	     -1.70970435	      5.23701370	      0.48385358	      0.94248370	     -0.05412078	     11.93838595	      0.88149539	     -2.69172821	    -58.60055447	      0.69809887	      6.43825438	      4.78053492	      0.84716251	     -4.22773657	    -28.56873335	     22.22267673	    -21.16349823	    -16.79164735	      4.48869189	    -11.04923544
      3.08000000	      9.55565935	     -1.61990052	      5.16842848	      0.47513129	      0.94195441	     -0.05367208	     10.49776558	      0.91087537	     -2.73005664	    -59.24124029	      0.33655447	      6.37981073	      5.47897619	      0.96183192	     -4.28411221	    -28.69899763	     21.78191662	    -21.17276671	    -16.62254271	      4.35272896	    -10.88951516
      3.09000000	      9.56108924	     -1.52564755	      5.10944861	      0.46637945	      0.94135978	     -0.05317501	      8.93592749	      0.94803331	     -2.78032413	    -59.64099786	     -0.22372238	      6.38504333	      6.14884706	      1.08571792	     -4.27189752	    -28.84404685	     21.33077976	    -21.16526247	    -16.49169449	      4.20690232	    -10.72661421
      3.10000000	      9.56533822	     -1.44202372	      5.06829403	      0.45760522	      0.94061242	     -0.05266289	      7.30973177	      0.98130623	     -2.89463681	    -59.81149493	     -0.86188046	      6.51669848	      6.85348583	      1.19541424	     -4.25190860	    -29.04397391	     20.91035962	    -21.18468834	    -16.34747664	      4.07304579	    -10.54706181
      3.11000000	      9.59751341	     -1.36507720	      5.03351680	      0.44882196	      0.93978422	     -0.05212228	      5.59881518	      1.01558442	     -3.05016308	    -59.75378011	     -1.56750892	      6.91839600	      7.53912525	      1.29092235	     -4.24071822	    -29.25823476	     20.53569406	    -21.22781785	    -16.22072069	      3.94851690	    -10.35285851
      3.12000000	      9.59177468	     -1.29575191	      4.98192060	      0.43989780	      0.93874553	     -0.05147306	      3.92261975	      1.08053356	     -3.15991045	    -59.52045338	     -2.26133602	      7.45154481	      8.31365217	      1.38210817	     -4.21145832	    -29.54060040	     20.13062923	    -21.32724428	    -16.05937357	      3.81644769	    -10.16106764
      3.13000000	      9.54449098	     -1.25240482	      4.91855184	      0.43087639	      0.93753280	     -0.05076714	      2.29158652	      1.17302109	     -3.26454121	    -59.10429455	     -2.95233760	      7.88805471	      9.14698708	      1.45866403	     -4.13145962	    -29.82539270	     19.71770257	    -21.44474044	    -15.84636110	      3.70603057	     -9.89442881
      3.14000000	      9.51060840	     -1.21562745	      4.81509906	      0.42173563	      0.93621514	     -0.04991394	      0.65688221	      1.29025458	     -3.30704730	    -58.51387170	     -3.49976643	      8.77889368	      9.99343656	      1.50195213	     -4.14963005	    -30.14792812	     19.32647474	    -21.62057928	    -15.65843195	      3.58939604	     -9.63424855
      3.15000000	      9.43417406	     -1.21644582	      4.67781891	      0.41236150	      0.93470482	     -0.04893892	     -0.88045360	      1.46954108	     -3.26540442	    -57.78317163	     -4.00500160	      9.48352964	     10.92522825	      1.51591978	     -4.11098749	    -30.50803893	     18.93299609	    -21.79735930	    -15.44398915	      3.50261169	     -9.30083765
      3.16000000	      9.31289733	     -1.23085644	      4.49064349	      0.40285818	      0.93305083	     -0.04782900	     -2.33221859	      1.67571040	     -3.12848035	    -56.89307294	     -4.33301480	     10.37287380	     11.90240269	      1.50418800	     -4.12591356	    -30.83948472	     18.48907454	    -22.01752693	    -15.18230307	      3.41709247	     -8.93284267
      3.17000000	      9.18215297	     -1.30811078	      4.25199941	      0.39312879	      0.93128064	     -0.04653465	     -3.71288498	      1.97956350	     -2.86492370	    -55.84166351	     -4.64582700	     10.93042154	     12.92296055	      1.40830203	     -4.15773240	    -31.20202359	     18.09048727	    -22.22877071	    -14.93262565	      3.38925376	     -8.50947147
      3.18000000	      9.00576535	     -1.36672877	      3.97084240	      0.38316103	      0.92936184	     -0.04513292	     -4.97654399	      2.27682558	     -2.47909530	    -54.66222564	     -4.78010546	     11.70019062	     13.99089364	      1.33414794	     -4.17897449	    -31.52814553	     17.57986787	    -22.49078630	    -14.65975321	      3.33109827	     -8.07536589
      3.19000000	      8.83510056	     -1.47283675	      3.63050199	      0.37297090	      0.92737636	     -0.04354005	     -6.18041442	      2.64361988	     -1.95942511	    -53.31505339	     -4.83413006	     11.89305797	     15.06641896	      1.17280933	     -4.27518931	    -31.85280980	     17.05714307	    -22.70543066	    -14.41960068	      3.31645294	     -7.60414074
      3.20000000	      8.63331734	     -1.59965896	      3.23029826	      0.36250126	      0.92529694	     -0.04179037	     -7.26715125	      3.05642843	     -1.25836018	    -51.83067293	     -4.78044156	     12.05972526	     16.16058093	      0.98186071	     -4.34429157	    -32.11532796	     16.49452090	    -22.94977601	    -14.18048832	      3.31545960	     -7.10157751
      3.21000000	      8.43064873	     -1.73355483	      2.79118106	      0.35174400	      0.92315953	     -0.03992520	     -8.26842631	      3.47107772	     -0.46565496	    -50.21519486	     -4.54020222	     11.97111488	     17.25057071	      0.75578085	     -4.45316700	    -32.33457498	     15.82983711	    -23.18020209	    -13.97929998	      3.32104148	     -6.60030615
      3.22000000	      8.22142557	     -1.88508727	      2.29681086	      0.34066815	      0.92097508	     -0.03791514	     -9.16306932	      3.89963992	      0.44643718	    -48.49464879	     -4.06223500	     11.56075528	     18.32952414	      0.47524158	     -4.61240312	    -32.48661118	     15.11292737	    -23.37987258	    -13.81581887	      3.34400609	     -6.08450013
      3.23000000	      8.00712120	     -2.02915350	      1.78816359	      0.32924373	      0.91875273	     -0.03585442	     -9.93776502	      4.28570972	      1.34556493	    -46.71232583	     -3.26191274	     10.51953603	     19.38792742	      0.18173837	     -4.77080312	    -32.54571845	     14.24149921	    -23.48176137	    -13.69524748	      3.36327521	     -5.59162497
      3.24000000	      7.81027621	     -2.16817167	      1.24662067	      0.31746408	      0.91655876	     -0.03370866	    -10.60251460	      4.63646691	      2.25713011	    -44.91379518	     -2.07471562	      9.41474605	     20.38261066	     -0.14683478	     -4.98665660	    -32.48346111	     13.29304473	    -23.48663919	    -13.64703365	      3.38022060	     -5.10539423
      3.25000000	      7.61965185	     -2.30107003	      0.70489340	      0.30531610	      0.91438801	     -0.03153691	    -11.12227320	      4.93993875	      3.07888829	    -43.16905302	     -0.48454564	      8.18127683	     21.32601562	     -0.50504888	     -5.24801069	    -32.29017990	     12.23132262	    -23.36462168	    -13.65777573	      3.39880618	     -4.66579436
      3.26000000	      7.43625808	     -2.43193913	      0.17755972	      0.29279594	      0.91227561	     -0.02937214	    -11.47615751	      5.20024240	      3.74936654	    -41.55156293	      1.48766768	      6.90539162	     22.20490172	     -0.89179239	     -5.53953235	    -31.93771497	     11.04792154	    -23.08825879	    -13.72974830	      3.42544852	     -4.26162245
      3.27000000	      7.26288596	     -2.56511500	     -0.31607818	      0.27992494	      0.91026059	     -0.02724645	    -11.65383735	      5.42910354	      4.21680931	    -40.12004062	      3.78979465	      5.65943400	     23.01057808	     -1.30804083	     -5.85872869	    -31.41207345	      9.72951532	    -22.63735871	    -13.86234455	      3.46584057	     -3.90623218
      3.28000000	      7.10230069	     -2.71084222	     -0.75661336	      0.26673647	      0.90838826	     -0.02520444	    -11.65260931	      5.64562738	      4.44269171	    -38.91112894	      6.33460970	      4.45872487	     23.72940550	     -1.75588554	     -6.19876122	    -30.68989862	      8.25704924	    -21.98701699	    -14.05470558	      3.53761248	     -3.61369798
      3.29000000	      6.95086561	     -2.85868190	     -1.13647638	      0.25327730	      0.90668356	     -0.02327443	    -11.46845206	      5.84698696	      4.42050699	    -37.93955238	      8.99717225	      3.33709492	     24.36268141	     -2.21310941	     -6.54553370	    -29.76710102	      6.58811198	    -21.14352930	    -14.29460921	      3.62583379	     -3.36906217
      3.30000000	      6.80932625	     -3.00647987	     -1.44182061	      0.23963997	      0.90518028	     -0.02149003	    -11.12957520	      6.04574573	      4.18474421	    -37.16462790	     11.65190817	      2.25514164	     24.90293535	     -2.66459632	     -6.88986212	    -28.64149133	      4.73431736	    -20.10466526	    -14.56618831	      3.73263774	     -3.20890173
      3.31000000	      6.68243032	     -3.15210179	     -1.67371795	      0.22586987	      0.90389076	     -0.01987949	    -10.65172284	      6.23832631	      3.75669283	    -36.56833457	     14.17469664	      1.17937822	     25.35541704	     -3.09513880	     -7.20804506	    -27.34619058	      2.68612301	    -18.88696004	    -14.86815186	      3.85558538	     -3.09542093
      3.32000000	      6.56983785	     -3.28342322	     -1.83227194	      0.21203836	      0.90282174	     -0.01845283	    -10.05179169	      6.41807625	      3.18982063	    -36.12850908	     16.47210846	      0.07931637	     25.72990523	     -3.48568210	     -7.50604349	    -25.92767988	      0.46868938	    -17.50215040	    -15.18619204	      3.98050234	     -3.03890856
      3.33000000	      6.46662529	     -3.39566523	     -1.91844183	      0.19829028	      0.90199078	     -0.01720344	     -9.37661927	      6.58851570	      2.56370669	    -35.76631367	     18.48632234	     -1.01856872	     26.04080342	     -3.82818295	     -7.78877668	    -24.45781010	     -1.83904212	    -16.01368617	    -15.48540441	      4.10017963	     -3.05450018
      3.34000000	      6.38806494	     -3.49095745	     -1.94445585	      0.18465166	      0.90139888	     -0.01611972	     -8.64142076	      6.74550064	      1.90889958	    -35.49862674	     20.20281895	     -2.11939453	     26.29970958	     -4.12822302	     -8.05130642	    -23.04560618	     -4.12469043	    -14.42423469	    -15.78147280	      4.21497381	     -3.12170461
      3.35000000	      6.33581846	     -3.57153178	     -1.91066846	      0.17121542	      0.90106433	     -0.01518375	     -7.88309486	      6.90274827	      1.29713141	    -35.28059126	     21.61021802	     -3.17708411	     26.51835170	     -4.38939411	     -8.27660072	    -21.78993042	     -6.22849719	    -12.77776352	    -16.06102661	      4.32576469	     -3.23889487
